<?xml version="1.0" encoding="UTF-8" standalone="no"?>
<!DOCTYPE svg PUBLIC "-//W3C//DTD SVG 1.1//EN"
 "http://www.w3.org/Graphics/SVG/1.1/DTD/svg11.dtd">
<!-- Generated by graphviz version 2.43.0 (0)
 -->
<!-- Title: %3 Pages: 1 -->
<svg width="959pt" height="1153pt"
 viewBox="0.00 0.00 958.87 1153.24" xmlns="http://www.w3.org/2000/svg" xmlns:xlink="http://www.w3.org/1999/xlink">
<g id="graph0" class="graph" transform="scale(1 1) rotate(0) translate(28.8 1124.44)">
<title>%3</title>
<polygon fill="white" stroke="transparent" points="-28.8,28.8 -28.8,-1124.44 930.07,-1124.44 930.07,28.8 -28.8,28.8"/>
<text text-anchor="middle" x="450.63" y="-1062.84" font-family="Helvetica,sans-Serif" font-size="36.00">aliasman</text>
<!-- aliasman -->
<g id="node1" class="node">
<title>aliasman</title>
<polygon fill="#5397c8" stroke="black" points="437.86,-480.13 437.86,-518.13 502.86,-518.13 502.86,-480.13 437.86,-480.13"/>
<text text-anchor="middle" x="470.36" y="-506.13" font-family="monospace" font-size="10.00">crate</text>
<polyline fill="none" stroke="black" points="437.86,-499.13 502.86,-499.13 "/>
<text text-anchor="middle" x="470.36" y="-487.13" font-family="monospace" font-size="10.00">aliasman</text>
</g>
<!-- aliasman::alias -->
<g id="node2" class="node">
<title>aliasman::alias</title>
<polygon fill="#81c169" stroke="black" points="669.68,-483.4 669.68,-521.4 728.68,-521.4 728.68,-483.4 669.68,-483.4"/>
<text text-anchor="middle" x="699.18" y="-509.4" font-family="monospace" font-size="10.00">pub mod</text>
<polyline fill="none" stroke="black" points="669.68,-502.4 728.68,-502.4 "/>
<text text-anchor="middle" x="699.18" y="-490.4" font-family="monospace" font-size="10.00">alias</text>
</g>
<!-- aliasman&#45;&gt;aliasman::alias -->
<g id="edge1" class="edge">
<title>aliasman&#45;&gt;aliasman::alias</title>
<path fill="none" stroke="#000000" d="M503.14,-499.6C544.33,-500.19 614.96,-501.2 659.25,-501.83"/>
<polygon fill="#000000" stroke="#000000" points="659.32,-505.33 669.36,-501.97 659.42,-498.33 659.32,-505.33"/>
<text text-anchor="middle" x="568.7" y="-503.71" font-family="monospace" font-size="10.00">owns</text>
</g>
<!-- aliasman::alias::AliasMan -->
<g id="node4" class="node">
<title>aliasman::alias::AliasMan</title>
<polygon fill="#81c169" stroke="black" points="580.44,-314.79 580.44,-352.79 687.44,-352.79 687.44,-314.79 580.44,-314.79"/>
<text text-anchor="middle" x="633.94" y="-340.79" font-family="monospace" font-size="10.00">pub struct</text>
<polyline fill="none" stroke="black" points="580.44,-333.79 687.44,-333.79 "/>
<text text-anchor="middle" x="633.94" y="-321.79" font-family="monospace" font-size="10.00">alias::AliasMan</text>
</g>
<!-- aliasman&#45;&gt;aliasman::alias::AliasMan -->
<g id="edge2" class="edge">
<title>aliasman&#45;&gt;aliasman::alias::AliasMan</title>
<path fill="none" stroke="#7f7f7f" stroke-dasharray="5,2" d="M489.45,-479.84C518.75,-450.22 574.89,-393.47 607.91,-360.1"/>
<polygon fill="#7f7f7f" stroke="#7f7f7f" points="610.44,-362.52 614.98,-352.95 605.46,-357.6 610.44,-362.52"/>
<text text-anchor="middle" x="536.18" y="-422.97" font-family="monospace" font-size="10.00">uses</text>
</g>
<!-- aliasman::cli -->
<g id="node5" class="node">
<title>aliasman::cli</title>
<polygon fill="#81c169" stroke="black" points="264.29,-274.34 264.29,-312.34 323.29,-312.34 323.29,-274.34 264.29,-274.34"/>
<text text-anchor="middle" x="293.79" y="-300.34" font-family="monospace" font-size="10.00">pub mod</text>
<polyline fill="none" stroke="black" points="264.29,-293.34 323.29,-293.34 "/>
<text text-anchor="middle" x="293.79" y="-281.34" font-family="monospace" font-size="10.00">cli</text>
</g>
<!-- aliasman&#45;&gt;aliasman::cli -->
<g id="edge3" class="edge">
<title>aliasman&#45;&gt;aliasman::cli</title>
<path fill="none" stroke="#000000" d="M453.75,-479.77C422.05,-442.83 352.89,-362.22 316.78,-320.13"/>
<polygon fill="#000000" stroke="#000000" points="319.39,-317.8 310.23,-312.49 314.08,-322.36 319.39,-317.8"/>
<text text-anchor="middle" x="372.76" y="-402.95" font-family="monospace" font-size="10.00">owns</text>
</g>
<!-- aliasman::modules -->
<g id="node11" class="node">
<title>aliasman::modules</title>
<polygon fill="#81c169" stroke="black" points="781.35,-541.02 781.35,-579.02 840.35,-579.02 840.35,-541.02 781.35,-541.02"/>
<text text-anchor="middle" x="810.85" y="-567.02" font-family="monospace" font-size="10.00">pub mod</text>
<polyline fill="none" stroke="black" points="781.35,-560.02 840.35,-560.02 "/>
<text text-anchor="middle" x="810.85" y="-548.02" font-family="monospace" font-size="10.00">modules</text>
</g>
<!-- aliasman&#45;&gt;aliasman::modules -->
<g id="edge4" class="edge">
<title>aliasman&#45;&gt;aliasman::modules</title>
<path fill="none" stroke="#000000" d="M503.01,-504.97C565.86,-516.21 703.46,-540.81 771.35,-552.95"/>
<polygon fill="#000000" stroke="#000000" points="770.78,-556.41 781.24,-554.72 772.01,-549.52 770.78,-556.41"/>
<text text-anchor="middle" x="624.68" y="-531.96" font-family="monospace" font-size="10.00">owns</text>
</g>
<!-- aliasman::utils -->
<g id="node16" class="node">
<title>aliasman::utils</title>
<polygon fill="#81c169" stroke="black" points="268.29,-645.37 268.29,-683.37 327.29,-683.37 327.29,-645.37 268.29,-645.37"/>
<text text-anchor="middle" x="297.79" y="-671.37" font-family="monospace" font-size="10.00">pub mod</text>
<polyline fill="none" stroke="black" points="268.29,-664.37 327.29,-664.37 "/>
<text text-anchor="middle" x="297.79" y="-652.37" font-family="monospace" font-size="10.00">utils</text>
</g>
<!-- aliasman&#45;&gt;aliasman::utils -->
<g id="edge5" class="edge">
<title>aliasman&#45;&gt;aliasman::utils</title>
<path fill="none" stroke="#000000" d="M450.23,-518.41C419.31,-548.01 360.08,-604.72 325.26,-638.07"/>
<polygon fill="#000000" stroke="#000000" points="322.6,-635.77 317.8,-645.21 327.44,-640.82 322.6,-635.77"/>
<text text-anchor="middle" x="375.24" y="-581.24" font-family="monospace" font-size="10.00">owns</text>
</g>
<!-- aliasman::utils::file_utils -->
<g id="node17" class="node">
<title>aliasman::utils::file_utils</title>
<polygon fill="#81c169" stroke="black" points="390.96,-626.08 390.96,-664.08 509.96,-664.08 509.96,-626.08 390.96,-626.08"/>
<text text-anchor="middle" x="450.46" y="-652.08" font-family="monospace" font-size="10.00">pub mod</text>
<polyline fill="none" stroke="black" points="390.96,-645.08 509.96,-645.08 "/>
<text text-anchor="middle" x="450.46" y="-633.08" font-family="monospace" font-size="10.00">utils::file_utils</text>
</g>
<!-- aliasman&#45;&gt;aliasman::utils::file_utils -->
<g id="edge6" class="edge">
<title>aliasman&#45;&gt;aliasman::utils::file_utils</title>
<path fill="none" stroke="#7f7f7f" stroke-dasharray="5,2" d="M467.76,-518.21C464.36,-543.12 458.38,-586.96 454.42,-616.02"/>
<polygon fill="#7f7f7f" stroke="#7f7f7f" points="450.94,-615.61 453.06,-625.99 457.88,-616.56 450.94,-615.61"/>
<text text-anchor="middle" x="448.59" y="-570.11" font-family="monospace" font-size="10.00">uses</text>
</g>
<!-- aliasman::utils::shell_utils -->
<g id="node21" class="node">
<title>aliasman::utils::shell_utils</title>
<polygon fill="#81c169" stroke="black" points="337.53,-773.27 337.53,-811.27 462.53,-811.27 462.53,-773.27 337.53,-773.27"/>
<text text-anchor="middle" x="400.03" y="-799.27" font-family="monospace" font-size="10.00">pub mod</text>
<polyline fill="none" stroke="black" points="337.53,-792.27 462.53,-792.27 "/>
<text text-anchor="middle" x="400.03" y="-780.27" font-family="monospace" font-size="10.00">utils::shell_utils</text>
</g>
<!-- aliasman&#45;&gt;aliasman::utils::shell_utils -->
<g id="edge7" class="edge">
<title>aliasman&#45;&gt;aliasman::utils::shell_utils</title>
<path fill="none" stroke="#7f7f7f" stroke-dasharray="5,2" d="M465.75,-518.36C453.73,-568.47 421.39,-703.28 407.05,-763.05"/>
<polygon fill="#7f7f7f" stroke="#7f7f7f" points="403.6,-762.43 404.67,-772.97 410.4,-764.06 403.6,-762.43"/>
<text text-anchor="middle" x="423.9" y="-643.71" font-family="monospace" font-size="10.00">uses</text>
</g>
<!-- aliasman::alias::Alias -->
<g id="node3" class="node">
<title>aliasman::alias::Alias</title>
<polygon fill="#81c169" stroke="black" points="696.12,-207.24 696.12,-245.24 785.12,-245.24 785.12,-207.24 696.12,-207.24"/>
<text text-anchor="middle" x="740.62" y="-233.24" font-family="monospace" font-size="10.00">pub struct</text>
<polyline fill="none" stroke="black" points="696.12,-226.24 785.12,-226.24 "/>
<text text-anchor="middle" x="740.62" y="-214.24" font-family="monospace" font-size="10.00">alias::Alias</text>
</g>
<!-- aliasman::alias&#45;&gt;aliasman::alias::Alias -->
<g id="edge8" class="edge">
<title>aliasman::alias&#45;&gt;aliasman::alias::Alias</title>
<path fill="none" stroke="#000000" d="M702.09,-482.98C709.26,-435.23 727.77,-311.87 736.25,-255.33"/>
<polygon fill="#000000" stroke="#000000" points="739.74,-255.68 737.76,-245.27 732.82,-254.64 739.74,-255.68"/>
<text text-anchor="middle" x="706.67" y="-372.15" font-family="monospace" font-size="10.00">owns</text>
</g>
<!-- aliasman::alias&#45;&gt;aliasman::alias::AliasMan -->
<g id="edge9" class="edge">
<title>aliasman::alias&#45;&gt;aliasman::alias::AliasMan</title>
<path fill="none" stroke="#000000" d="M691.82,-483.39C680.42,-453.91 658.4,-397 645.05,-362.5"/>
<polygon fill="#000000" stroke="#000000" points="648.25,-361.05 641.37,-352.99 641.72,-363.58 648.25,-361.05"/>
<text text-anchor="middle" x="655.94" y="-425.94" font-family="monospace" font-size="10.00">owns</text>
</g>
<!-- aliasman::alias&#45;&gt;aliasman::utils::file_utils -->
<g id="edge10" class="edge">
<title>aliasman::alias&#45;&gt;aliasman::utils::file_utils</title>
<path fill="none" stroke="#7f7f7f" stroke-dasharray="5,2" d="M669.67,-519.33C625.72,-544.53 542.88,-592.06 492.58,-620.91"/>
<polygon fill="#7f7f7f" stroke="#7f7f7f" points="490.82,-617.89 483.88,-625.9 494.3,-623.96 490.82,-617.89"/>
<text text-anchor="middle" x="568.62" y="-573.12" font-family="monospace" font-size="10.00">uses</text>
</g>
<!-- aliasman::utils::string_utils -->
<g id="node23" class="node">
<title>aliasman::utils::string_utils</title>
<polygon fill="#81c169" stroke="black" points="601.51,-736.7 601.51,-774.7 732.51,-774.7 732.51,-736.7 601.51,-736.7"/>
<text text-anchor="middle" x="667.01" y="-762.7" font-family="monospace" font-size="10.00">pub mod</text>
<polyline fill="none" stroke="black" points="601.51,-755.7 732.51,-755.7 "/>
<text text-anchor="middle" x="667.01" y="-743.7" font-family="monospace" font-size="10.00">utils::string_utils</text>
</g>
<!-- aliasman::alias&#45;&gt;aliasman::utils::string_utils -->
<g id="edge11" class="edge">
<title>aliasman::alias&#45;&gt;aliasman::utils::string_utils</title>
<path fill="none" stroke="#7f7f7f" stroke-dasharray="5,2" d="M696.76,-521.44C691.18,-565.35 677.38,-673.99 670.72,-726.44"/>
<polygon fill="#7f7f7f" stroke="#7f7f7f" points="667.24,-726.08 669.45,-736.44 674.18,-726.96 667.24,-726.08"/>
<text text-anchor="middle" x="696.24" y="-626.94" font-family="monospace" font-size="10.00">uses</text>
</g>
<!-- aliasman::alias::AliasMan&#45;&gt;aliasman::alias::Alias -->
<g id="edge12" class="edge">
<title>aliasman::alias::AliasMan&#45;&gt;aliasman::alias::Alias</title>
<path fill="none" stroke="#7f7f7f" stroke-dasharray="5,2" d="M653.02,-314.56C670.16,-297.28 695.49,-271.74 714.51,-252.56"/>
<polygon fill="#7f7f7f" stroke="#7f7f7f" points="717.15,-254.86 721.71,-245.3 712.18,-249.93 717.15,-254.86"/>
<text text-anchor="middle" x="671.26" y="-286.56" font-family="monospace" font-size="10.00">uses</text>
</g>
<!-- aliasman::cli::commands -->
<g id="node6" class="node">
<title>aliasman::cli::commands</title>
<polygon fill="#81c169" stroke="black" points="144.86,-27.52 144.86,-65.52 239.86,-65.52 239.86,-27.52 144.86,-27.52"/>
<text text-anchor="middle" x="192.36" y="-53.52" font-family="monospace" font-size="10.00">pub mod</text>
<polyline fill="none" stroke="black" points="144.86,-46.52 239.86,-46.52 "/>
<text text-anchor="middle" x="192.36" y="-34.52" font-family="monospace" font-size="10.00">cli::commands</text>
</g>
<!-- aliasman::cli&#45;&gt;aliasman::cli::commands -->
<g id="edge13" class="edge">
<title>aliasman::cli&#45;&gt;aliasman::cli::commands</title>
<path fill="none" stroke="#000000" d="M285.83,-273.97C268.05,-230.71 225.05,-126.07 204.16,-75.22"/>
<polygon fill="#000000" stroke="#000000" points="207.32,-73.72 200.28,-65.8 200.85,-76.38 207.32,-73.72"/>
<text text-anchor="middle" x="232.49" y="-177.59" font-family="monospace" font-size="10.00">owns</text>
</g>
<!-- aliasman::cli::program -->
<g id="node9" class="node">
<title>aliasman::cli::program</title>
<polygon fill="#81c169" stroke="black" points="457.89,-288.36 457.89,-326.36 546.89,-326.36 546.89,-288.36 457.89,-288.36"/>
<text text-anchor="middle" x="502.39" y="-314.36" font-family="monospace" font-size="10.00">pub mod</text>
<polyline fill="none" stroke="black" points="457.89,-307.36 546.89,-307.36 "/>
<text text-anchor="middle" x="502.39" y="-295.36" font-family="monospace" font-size="10.00">cli::program</text>
</g>
<!-- aliasman::cli&#45;&gt;aliasman::cli::program -->
<g id="edge14" class="edge">
<title>aliasman::cli&#45;&gt;aliasman::cli::program</title>
<path fill="none" stroke="#000000" d="M323.67,-295.34C355.91,-297.51 407.92,-301.01 447.54,-303.67"/>
<polygon fill="#000000" stroke="#000000" points="447.37,-307.17 457.59,-304.35 447.84,-300.19 447.37,-307.17"/>
<text text-anchor="middle" x="373.11" y="-302.51" font-family="monospace" font-size="10.00">owns</text>
</g>
<!-- aliasman::cli::commands::Cli -->
<g id="node7" class="node">
<title>aliasman::cli::commands::Cli</title>
<polygon fill="#81c169" stroke="black" points="306.64,-82.84 306.64,-120.84 431.64,-120.84 431.64,-82.84 306.64,-82.84"/>
<text text-anchor="middle" x="369.14" y="-108.84" font-family="monospace" font-size="10.00">pub struct</text>
<polyline fill="none" stroke="black" points="306.64,-101.84 431.64,-101.84 "/>
<text text-anchor="middle" x="369.14" y="-89.84" font-family="monospace" font-size="10.00">cli::commands::Cli</text>
</g>
<!-- aliasman::cli::commands&#45;&gt;aliasman::cli::commands::Cli -->
<g id="edge15" class="edge">
<title>aliasman::cli::commands&#45;&gt;aliasman::cli::commands::Cli</title>
<path fill="none" stroke="#000000" d="M240.2,-61.49C258.13,-67.1 278.91,-73.61 298.48,-79.73"/>
<polygon fill="#000000" stroke="#000000" points="297.68,-83.15 308.27,-82.79 299.77,-76.47 297.68,-83.15"/>
<text text-anchor="middle" x="256.84" y="-73.61" font-family="monospace" font-size="10.00">owns</text>
</g>
<!-- aliasman::cli::commands::Commands -->
<g id="node8" class="node">
<title>aliasman::cli::commands::Commands</title>
<polygon fill="#81c169" stroke="black" points="376.07,-0.5 376.07,-38.5 531.07,-38.5 531.07,-0.5 376.07,-0.5"/>
<text text-anchor="middle" x="453.57" y="-26.5" font-family="monospace" font-size="10.00">pub enum</text>
<polyline fill="none" stroke="black" points="376.07,-19.5 531.07,-19.5 "/>
<text text-anchor="middle" x="453.57" y="-7.5" font-family="monospace" font-size="10.00">cli::commands::Commands</text>
</g>
<!-- aliasman::cli::commands&#45;&gt;aliasman::cli::commands::Commands -->
<g id="edge16" class="edge">
<title>aliasman::cli::commands&#45;&gt;aliasman::cli::commands::Commands</title>
<path fill="none" stroke="#000000" d="M239.97,-41.6C275.11,-37.96 323.95,-32.91 366.06,-28.55"/>
<polygon fill="#000000" stroke="#000000" points="366.46,-32.03 376.05,-27.52 365.74,-25.07 366.46,-32.03"/>
<text text-anchor="middle" x="290.51" y="-38.07" font-family="monospace" font-size="10.00">owns</text>
</g>
<!-- aliasman::cli::commands::Cli&#45;&gt;aliasman::cli::commands::Commands -->
<g id="edge17" class="edge">
<title>aliasman::cli::commands::Cli&#45;&gt;aliasman::cli::commands::Commands</title>
<path fill="none" stroke="#7f7f7f" stroke-dasharray="5,2" d="M388.72,-82.74C399.94,-71.81 414.17,-57.92 426.45,-45.94"/>
<polygon fill="#7f7f7f" stroke="#7f7f7f" points="429.08,-48.27 433.8,-38.78 424.2,-43.26 429.08,-48.27"/>
<text text-anchor="middle" x="395.09" y="-67.34" font-family="monospace" font-size="10.00">uses</text>
</g>
<!-- aliasman::cli::program&#45;&gt;aliasman -->
<g id="edge18" class="edge">
<title>aliasman::cli::program&#45;&gt;aliasman</title>
<path fill="none" stroke="#7f7f7f" stroke-dasharray="5,2" d="M499.2,-326.45C493.58,-360.12 481.87,-430.25 475.23,-470"/>
<polygon fill="#7f7f7f" stroke="#7f7f7f" points="471.73,-469.68 473.54,-480.12 478.64,-470.83 471.73,-469.68"/>
<text text-anchor="middle" x="474.71" y="-401.23" font-family="monospace" font-size="10.00">uses</text>
</g>
<!-- aliasman::cli::program&#45;&gt;aliasman::alias::Alias -->
<g id="edge19" class="edge">
<title>aliasman::cli::program&#45;&gt;aliasman::alias::Alias</title>
<path fill="none" stroke="#7f7f7f" stroke-dasharray="5,2" d="M546.92,-292.2C586.4,-278.75 644.17,-259.08 686.35,-244.72"/>
<polygon fill="#7f7f7f" stroke="#7f7f7f" points="687.57,-248 695.9,-241.46 685.31,-241.37 687.57,-248"/>
<text text-anchor="middle" x="604.13" y="-271.46" font-family="monospace" font-size="10.00">uses</text>
</g>
<!-- aliasman::cli::program&#45;&gt;aliasman::alias::AliasMan -->
<g id="edge20" class="edge">
<title>aliasman::cli::program&#45;&gt;aliasman::alias::AliasMan</title>
<path fill="none" stroke="#7f7f7f" stroke-dasharray="5,2" d="M546.93,-316.31C554.48,-317.82 562.44,-319.42 570.36,-321.01"/>
<polygon fill="#7f7f7f" stroke="#7f7f7f" points="569.85,-324.48 580.34,-323.02 571.23,-317.62 569.85,-324.48"/>
<text text-anchor="middle" x="564.9" y="-310.66" font-family="monospace" font-size="10.00">uses</text>
</g>
<!-- aliasman::cli::program&#45;&gt;aliasman::cli::commands::Cli -->
<g id="edge21" class="edge">
<title>aliasman::cli::program&#45;&gt;aliasman::cli::commands::Cli</title>
<path fill="none" stroke="#7f7f7f" stroke-dasharray="5,2" d="M489.86,-288.03C466.09,-251.36 414.39,-171.64 387,-129.39"/>
<polygon fill="#7f7f7f" stroke="#7f7f7f" points="389.92,-127.46 381.55,-120.98 384.05,-131.27 389.92,-127.46"/>
<text text-anchor="middle" x="425.93" y="-211.71" font-family="monospace" font-size="10.00">uses</text>
</g>
<!-- aliasman::cli::program&#45;&gt;aliasman::cli::commands::Commands -->
<g id="edge22" class="edge">
<title>aliasman::cli::program&#45;&gt;aliasman::cli::commands::Commands</title>
<path fill="none" stroke="#7f7f7f" stroke-dasharray="5,2" d="M499.11,-288.03C490.74,-238.66 468.53,-107.71 458.55,-48.86"/>
<polygon fill="#7f7f7f" stroke="#7f7f7f" points="461.95,-48.02 456.83,-38.75 455.05,-49.19 461.95,-48.02"/>
<text text-anchor="middle" x="466.33" y="-171.44" font-family="monospace" font-size="10.00">uses</text>
</g>
<!-- aliasman::cli::program::Program -->
<g id="node10" class="node">
<title>aliasman::cli::program::Program</title>
<polygon fill="#81c169" stroke="black" points="531.14,-80.83 531.14,-118.83 674.14,-118.83 674.14,-80.83 531.14,-80.83"/>
<text text-anchor="middle" x="602.64" y="-106.83" font-family="monospace" font-size="10.00">pub struct</text>
<polyline fill="none" stroke="black" points="531.14,-99.83 674.14,-99.83 "/>
<text text-anchor="middle" x="602.64" y="-87.83" font-family="monospace" font-size="10.00">cli::program::Program</text>
</g>
<!-- aliasman::cli::program&#45;&gt;aliasman::cli::program::Program -->
<g id="edge23" class="edge">
<title>aliasman::cli::program&#45;&gt;aliasman::cli::program::Program</title>
<path fill="none" stroke="#000000" d="M511.64,-288.21C529.4,-251.45 568.32,-170.87 589.04,-127.98"/>
<polygon fill="#000000" stroke="#000000" points="592.21,-129.46 593.41,-118.93 585.91,-126.42 592.21,-129.46"/>
<text text-anchor="middle" x="537.84" y="-211.1" font-family="monospace" font-size="10.00">owns</text>
</g>
<!-- aliasman::modules::updateable -->
<g id="node12" class="node">
<title>aliasman::modules::updateable</title>
<polygon fill="#81c169" stroke="black" points="530.3,-615.86 530.3,-653.86 661.3,-653.86 661.3,-615.86 530.3,-615.86"/>
<text text-anchor="middle" x="595.8" y="-641.86" font-family="monospace" font-size="10.00">pub mod</text>
<polyline fill="none" stroke="black" points="530.3,-634.86 661.3,-634.86 "/>
<text text-anchor="middle" x="595.8" y="-622.86" font-family="monospace" font-size="10.00">modules::updateable</text>
</g>
<!-- aliasman::cli::program&#45;&gt;aliasman::modules::updateable -->
<g id="edge24" class="edge">
<title>aliasman::cli::program&#45;&gt;aliasman::modules::updateable</title>
<path fill="none" stroke="#7f7f7f" stroke-dasharray="5,2" d="M507.82,-326.38C523.49,-381.33 568.89,-540.5 587.6,-606.09"/>
<polygon fill="#7f7f7f" stroke="#7f7f7f" points="584.25,-607.13 590.36,-615.78 590.98,-605.21 584.25,-607.13"/>
<text text-anchor="middle" x="535.21" y="-469.24" font-family="monospace" font-size="10.00">uses</text>
</g>
<!-- aliasman::modules::upgrade -->
<g id="node15" class="node">
<title>aliasman::modules::upgrade</title>
<polygon fill="#81c169" stroke="black" points="788.27,-280.75 788.27,-318.75 901.27,-318.75 901.27,-280.75 788.27,-280.75"/>
<text text-anchor="middle" x="844.77" y="-306.75" font-family="monospace" font-size="10.00">pub mod</text>
<polyline fill="none" stroke="black" points="788.27,-299.75 901.27,-299.75 "/>
<text text-anchor="middle" x="844.77" y="-287.75" font-family="monospace" font-size="10.00">modules::upgrade</text>
</g>
<!-- aliasman::cli::program&#45;&gt;aliasman::modules::upgrade -->
<g id="edge25" class="edge">
<title>aliasman::cli::program&#45;&gt;aliasman::modules::upgrade</title>
<path fill="none" stroke="#7f7f7f" stroke-dasharray="5,2" d="M547.15,-306.37C605.94,-305.06 709.69,-302.75 777.83,-301.24"/>
<polygon fill="#7f7f7f" stroke="#7f7f7f" points="778.12,-304.73 788.03,-301.01 777.96,-297.73 778.12,-304.73"/>
<text text-anchor="middle" x="649.99" y="-306.8" font-family="monospace" font-size="10.00">uses</text>
</g>
<!-- aliasman::utils::print -->
<g id="node18" class="node">
<title>aliasman::utils::print</title>
<polygon fill="#81c169" stroke="black" points="187.3,-408.79 187.3,-446.79 276.3,-446.79 276.3,-408.79 187.3,-408.79"/>
<text text-anchor="middle" x="231.8" y="-434.79" font-family="monospace" font-size="10.00">pub mod</text>
<polyline fill="none" stroke="black" points="187.3,-427.79 276.3,-427.79 "/>
<text text-anchor="middle" x="231.8" y="-415.79" font-family="monospace" font-size="10.00">utils::print</text>
</g>
<!-- aliasman::cli::program&#45;&gt;aliasman::utils::print -->
<g id="edge26" class="edge">
<title>aliasman::cli::program&#45;&gt;aliasman::utils::print</title>
<path fill="none" stroke="#7f7f7f" stroke-dasharray="5,2" d="M459.52,-326.44C411.96,-347.61 335.21,-381.76 284.14,-404.49"/>
<polygon fill="#7f7f7f" stroke="#7f7f7f" points="282.63,-401.33 274.92,-408.59 285.48,-407.73 282.63,-401.33"/>
<text text-anchor="middle" x="359.33" y="-368.47" font-family="monospace" font-size="10.00">uses</text>
</g>
<!-- aliasman::cli::program::Program&#45;&gt;aliasman::alias::Alias -->
<g id="edge27" class="edge">
<title>aliasman::cli::program::Program&#45;&gt;aliasman::alias::Alias</title>
<path fill="none" stroke="#7f7f7f" stroke-dasharray="5,2" d="M623.6,-119.03C647.2,-140.65 685.7,-175.92 712.04,-200.06"/>
<polygon fill="#7f7f7f" stroke="#7f7f7f" points="709.73,-202.68 719.46,-206.86 714.46,-197.52 709.73,-202.68"/>
<text text-anchor="middle" x="655.32" y="-162.54" font-family="monospace" font-size="10.00">uses</text>
</g>
<!-- aliasman::cli::program::Program&#45;&gt;aliasman::alias::AliasMan -->
<g id="edge28" class="edge">
<title>aliasman::cli::program::Program&#45;&gt;aliasman::alias::AliasMan</title>
<path fill="none" stroke="#7f7f7f" stroke-dasharray="5,2" d="M605.2,-118.97C610.67,-159.86 623.53,-255.94 630.03,-304.54"/>
<polygon fill="#7f7f7f" stroke="#7f7f7f" points="626.6,-305.26 631.39,-314.7 633.53,-304.33 626.6,-305.26"/>
<text text-anchor="middle" x="605.12" y="-214.75" font-family="monospace" font-size="10.00">uses</text>
</g>
<!-- aliasman::cli::program::Program&#45;&gt;aliasman::cli::commands::Cli -->
<g id="edge29" class="edge">
<title>aliasman::cli::program::Program&#45;&gt;aliasman::cli::commands::Cli</title>
<path fill="none" stroke="#7f7f7f" stroke-dasharray="5,2" d="M531,-100.45C502.82,-100.69 470.5,-100.97 442.19,-101.21"/>
<polygon fill="#7f7f7f" stroke="#7f7f7f" points="441.92,-97.71 431.95,-101.3 441.98,-104.71 441.92,-97.71"/>
<text text-anchor="middle" x="474.09" y="-103.83" font-family="monospace" font-size="10.00">uses</text>
</g>
<!-- aliasman::cli::program::Program&#45;&gt;aliasman::cli::commands::Commands -->
<g id="edge30" class="edge">
<title>aliasman::cli::program::Program&#45;&gt;aliasman::cli::commands::Commands</title>
<path fill="none" stroke="#7f7f7f" stroke-dasharray="5,2" d="M567.31,-80.79C546.5,-69.58 519.99,-55.29 497.8,-43.34"/>
<polygon fill="#7f7f7f" stroke="#7f7f7f" points="499.36,-40.2 488.9,-38.54 496.04,-46.36 499.36,-40.2"/>
<text text-anchor="middle" x="520.06" y="-65.06" font-family="monospace" font-size="10.00">uses</text>
</g>
<!-- aliasman::modules&#45;&gt;aliasman::modules::updateable -->
<g id="edge31" class="edge">
<title>aliasman::modules&#45;&gt;aliasman::modules::updateable</title>
<path fill="none" stroke="#000000" d="M780.95,-570.43C749.93,-581.22 700.44,-598.45 660.43,-612.37"/>
<polygon fill="#000000" stroke="#000000" points="659.03,-609.15 650.74,-615.74 661.33,-615.76 659.03,-609.15"/>
<text text-anchor="middle" x="708.19" y="-594.4" font-family="monospace" font-size="10.00">owns</text>
</g>
<!-- aliasman::modules&#45;&gt;aliasman::modules::upgrade -->
<g id="edge32" class="edge">
<title>aliasman::modules&#45;&gt;aliasman::modules::upgrade</title>
<path fill="none" stroke="#000000" d="M813.35,-540.88C819.22,-495.85 833.93,-382.95 840.94,-329.15"/>
<polygon fill="#000000" stroke="#000000" points="844.45,-329.28 842.27,-318.91 837.51,-328.38 844.45,-329.28"/>
<text text-anchor="middle" x="814.64" y="-438.02" font-family="monospace" font-size="10.00">owns</text>
</g>
<!-- aliasman::modules::updateable::ProgramInfo -->
<g id="node13" class="node">
<title>aliasman::modules::updateable::ProgramInfo</title>
<polygon fill="#81c169" stroke="black" points="576.01,-858.18 576.01,-896.18 785.01,-896.18 785.01,-858.18 576.01,-858.18"/>
<text text-anchor="middle" x="680.51" y="-884.18" font-family="monospace" font-size="10.00">pub struct</text>
<polyline fill="none" stroke="black" points="576.01,-877.18 785.01,-877.18 "/>
<text text-anchor="middle" x="680.51" y="-865.18" font-family="monospace" font-size="10.00">modules::updateable::ProgramInfo</text>
</g>
<!-- aliasman::modules::updateable&#45;&gt;aliasman::modules::updateable::ProgramInfo -->
<g id="edge33" class="edge">
<title>aliasman::modules::updateable&#45;&gt;aliasman::modules::updateable::ProgramInfo</title>
<path fill="none" stroke="#000000" d="M598.5,-653.91C609.42,-696.32 644.85,-798.61 665.63,-848.66"/>
<polygon fill="#000000" stroke="#000000" points="662.44,-850.1 669.57,-857.94 668.88,-847.36 662.44,-850.1"/>
<text text-anchor="middle" x="619.56" y="-754.28" font-family="monospace" font-size="10.00">owns</text>
</g>
<!-- aliasman::modules::updateable&#45;&gt;aliasman::modules::updateable::ProgramInfo -->
<g id="edge34" class="edge">
<title>aliasman::modules::updateable&#45;&gt;aliasman::modules::updateable::ProgramInfo</title>
<path fill="none" stroke="#7f7f7f" stroke-dasharray="5,2" d="M606.78,-654.21C625.34,-696.64 660.95,-797.99 675.09,-848.12"/>
<polygon fill="#7f7f7f" stroke="#7f7f7f" points="671.78,-849.26 677.77,-858 678.53,-847.43 671.78,-849.26"/>
<text text-anchor="middle" x="628.44" y="-743.16" font-family="monospace" font-size="10.00">uses</text>
</g>
<!-- aliasman::modules::updateable::ShellInformation -->
<g id="node14" class="node">
<title>aliasman::modules::updateable::ShellInformation</title>
<polygon fill="#81c169" stroke="black" points="422.44,-905.18 422.44,-943.18 661.44,-943.18 661.44,-905.18 422.44,-905.18"/>
<text text-anchor="middle" x="541.94" y="-931.18" font-family="monospace" font-size="10.00">pub struct</text>
<polyline fill="none" stroke="black" points="422.44,-924.18 661.44,-924.18 "/>
<text text-anchor="middle" x="541.94" y="-912.18" font-family="monospace" font-size="10.00">modules::updateable::ShellInformation</text>
</g>
<!-- aliasman::modules::updateable&#45;&gt;aliasman::modules::updateable::ShellInformation -->
<g id="edge35" class="edge">
<title>aliasman::modules::updateable&#45;&gt;aliasman::modules::updateable::ShellInformation</title>
<path fill="none" stroke="#000000" d="M592.18,-654.29C582.95,-703.91 558.45,-835.52 547.44,-894.67"/>
<polygon fill="#000000" stroke="#000000" points="543.94,-894.36 545.55,-904.83 550.82,-895.64 543.94,-894.36"/>
<text text-anchor="middle" x="557.31" y="-777.48" font-family="monospace" font-size="10.00">owns</text>
</g>
<!-- aliasman::modules::updateable&#45;&gt;aliasman::utils::file_utils -->
<g id="edge36" class="edge">
<title>aliasman::modules::updateable&#45;&gt;aliasman::utils::file_utils</title>
<path fill="none" stroke="#7f7f7f" stroke-dasharray="5,2" d="M529.93,-639.49C526.73,-639.71 523.51,-639.94 520.3,-640.17"/>
<polygon fill="#7f7f7f" stroke="#7f7f7f" points="519.83,-636.69 510.1,-640.88 520.32,-643.67 519.83,-636.69"/>
<text text-anchor="middle" x="518.87" y="-631.83" font-family="monospace" font-size="10.00">uses</text>
</g>
<!-- aliasman::modules::updateable&#45;&gt;aliasman::utils::shell_utils -->
<g id="edge37" class="edge">
<title>aliasman::modules::updateable&#45;&gt;aliasman::utils::shell_utils</title>
<path fill="none" stroke="#7f7f7f" stroke-dasharray="5,2" d="M564.25,-653.91C525.25,-682.12 459.84,-734.74 424.45,-766.4"/>
<polygon fill="#7f7f7f" stroke="#7f7f7f" points="422.01,-763.89 416.96,-773.21 426.72,-769.07 422.01,-763.89"/>
<text text-anchor="middle" x="481.85" y="-713.16" font-family="monospace" font-size="10.00">uses</text>
</g>
<!-- aliasman::utils&#45;&gt;aliasman::utils::file_utils -->
<g id="edge38" class="edge">
<title>aliasman::utils&#45;&gt;aliasman::utils::file_utils</title>
<path fill="none" stroke="#000000" d="M327.59,-660.6C342.81,-658.68 362.03,-656.25 380.72,-653.89"/>
<polygon fill="#000000" stroke="#000000" points="381.24,-657.35 390.72,-652.62 380.36,-650.41 381.24,-657.35"/>
<text text-anchor="middle" x="341.66" y="-660.24" font-family="monospace" font-size="10.00">owns</text>
</g>
<!-- aliasman::utils&#45;&gt;aliasman::utils::print -->
<g id="edge39" class="edge">
<title>aliasman::utils&#45;&gt;aliasman::utils::print</title>
<path fill="none" stroke="#000000" d="M292.39,-645.01C280.81,-603.49 253.53,-505.69 239.87,-456.75"/>
<polygon fill="#000000" stroke="#000000" points="243.24,-455.77 237.18,-447.08 236.49,-457.65 243.24,-455.77"/>
<text text-anchor="middle" x="253.63" y="-553.88" font-family="monospace" font-size="10.00">owns</text>
</g>
<!-- aliasman::utils::proc -->
<g id="node19" class="node">
<title>aliasman::utils::proc</title>
<polygon fill="#81c169" stroke="black" points="85.94,-875.23 85.94,-913.23 168.94,-913.23 168.94,-875.23 85.94,-875.23"/>
<text text-anchor="middle" x="127.44" y="-901.23" font-family="monospace" font-size="10.00">pub mod</text>
<polyline fill="none" stroke="black" points="85.94,-894.23 168.94,-894.23 "/>
<text text-anchor="middle" x="127.44" y="-882.23" font-family="monospace" font-size="10.00">utils::proc</text>
</g>
<!-- aliasman::utils&#45;&gt;aliasman::utils::proc -->
<g id="edge40" class="edge">
<title>aliasman::utils&#45;&gt;aliasman::utils::proc</title>
<path fill="none" stroke="#000000" d="M283.56,-683.57C253.37,-724.3 182.83,-819.49 147.85,-866.69"/>
<polygon fill="#000000" stroke="#000000" points="144.89,-864.81 141.75,-874.92 150.51,-868.97 144.89,-864.81"/>
<text text-anchor="middle" x="203.2" y="-767.13" font-family="monospace" font-size="10.00">owns</text>
</g>
<!-- aliasman::utils&#45;&gt;aliasman::utils::shell_utils -->
<g id="edge41" class="edge">
<title>aliasman::utils&#45;&gt;aliasman::utils::shell_utils</title>
<path fill="none" stroke="#000000" d="M313.1,-683.52C330.41,-705.18 358.75,-740.63 378.34,-765.14"/>
<polygon fill="#000000" stroke="#000000" points="375.65,-767.37 384.62,-772.99 381.11,-763 375.65,-767.37"/>
<text text-anchor="middle" x="333.22" y="-727.33" font-family="monospace" font-size="10.00">owns</text>
</g>
<!-- aliasman::utils&#45;&gt;aliasman::utils::string_utils -->
<g id="edge42" class="edge">
<title>aliasman::utils&#45;&gt;aliasman::utils::string_utils</title>
<path fill="none" stroke="#000000" d="M327.38,-671.69C384.19,-685.74 510.13,-716.89 591.66,-737.06"/>
<polygon fill="#000000" stroke="#000000" points="590.83,-740.46 601.37,-739.46 592.51,-733.66 590.83,-740.46"/>
<text text-anchor="middle" x="447.02" y="-707.37" font-family="monospace" font-size="10.00">owns</text>
</g>
<!-- aliasman::utils::proc::ProcessMan -->
<g id="node20" class="node">
<title>aliasman::utils::proc::ProcessMan</title>
<polygon fill="#81c169" stroke="black" points="217.22,-1009.14 217.22,-1047.14 372.22,-1047.14 372.22,-1009.14 217.22,-1009.14"/>
<text text-anchor="middle" x="294.72" y="-1035.14" font-family="monospace" font-size="10.00">pub struct</text>
<polyline fill="none" stroke="black" points="217.22,-1028.14 372.22,-1028.14 "/>
<text text-anchor="middle" x="294.72" y="-1016.14" font-family="monospace" font-size="10.00">utils::proc::ProcessMan</text>
</g>
<!-- aliasman::utils::proc&#45;&gt;aliasman::utils::proc::ProcessMan -->
<g id="edge43" class="edge">
<title>aliasman::utils::proc&#45;&gt;aliasman::utils::proc::ProcessMan</title>
<path fill="none" stroke="#000000" d="M151.41,-913.42C180.72,-936.89 230.45,-976.69 262.93,-1002.7"/>
<polygon fill="#000000" stroke="#000000" points="260.81,-1005.48 270.8,-1008.99 265.18,-1000.01 260.81,-1005.48"/>
<text text-anchor="middle" x="194.67" y="-961.06" font-family="monospace" font-size="10.00">owns</text>
</g>
<!-- aliasman::utils::shell_utils&#45;&gt;aliasman::modules::updateable -->
<g id="edge44" class="edge">
<title>aliasman::utils::shell_utils&#45;&gt;aliasman::modules::updateable</title>
<path fill="none" stroke="#7f7f7f" stroke-dasharray="5,2" d="M431.59,-773.23C470.59,-745.01 535.99,-692.39 571.38,-660.73"/>
<polygon fill="#7f7f7f" stroke="#7f7f7f" points="573.83,-663.24 578.87,-653.93 569.12,-658.06 573.83,-663.24"/>
<text text-anchor="middle" x="513.99" y="-719.98" font-family="monospace" font-size="10.00">uses</text>
</g>
<!-- aliasman::utils::shell_utils&#45;&gt;aliasman::modules::updateable::ProgramInfo -->
<g id="edge45" class="edge">
<title>aliasman::utils::shell_utils&#45;&gt;aliasman::modules::updateable::ProgramInfo</title>
<path fill="none" stroke="#7f7f7f" stroke-dasharray="5,2" d="M462.63,-811.22C505.65,-824.24 562.9,-841.57 607.92,-855.2"/>
<polygon fill="#7f7f7f" stroke="#7f7f7f" points="607.03,-858.59 617.62,-858.14 609.06,-851.89 607.03,-858.59"/>
<text text-anchor="middle" x="522.77" y="-836.21" font-family="monospace" font-size="10.00">uses</text>
</g>
<!-- aliasman::utils::shell_utils&#45;&gt;aliasman::modules::updateable::ShellInformation -->
<g id="edge46" class="edge">
<title>aliasman::utils::shell_utils&#45;&gt;aliasman::modules::updateable::ShellInformation</title>
<path fill="none" stroke="#7f7f7f" stroke-dasharray="5,2" d="M420.67,-811.45C445.26,-834.31 486.47,-872.62 513.93,-898.14"/>
<polygon fill="#7f7f7f" stroke="#7f7f7f" points="511.58,-900.73 521.29,-904.98 516.34,-895.6 511.58,-900.73"/>
<text text-anchor="middle" x="454.8" y="-857.8" font-family="monospace" font-size="10.00">uses</text>
</g>
<!-- aliasman::utils::shell_utils&#45;&gt;aliasman::utils::file_utils -->
<g id="edge47" class="edge">
<title>aliasman::utils::shell_utils&#45;&gt;aliasman::utils::file_utils</title>
<path fill="none" stroke="#7f7f7f" stroke-dasharray="5,2" d="M406.63,-773.03C415.27,-747.8 430.51,-703.3 440.55,-674"/>
<polygon fill="#7f7f7f" stroke="#7f7f7f" points="443.93,-674.92 443.86,-664.32 437.31,-672.65 443.93,-674.92"/>
<text text-anchor="middle" x="411.09" y="-726.51" font-family="monospace" font-size="10.00">uses</text>
</g>
<!-- aliasman::utils::shell_utils&#45;&gt;aliasman::utils::proc::ProcessMan -->
<g id="edge48" class="edge">
<title>aliasman::utils::shell_utils&#45;&gt;aliasman::utils::proc::ProcessMan</title>
<path fill="none" stroke="#7f7f7f" stroke-dasharray="5,2" d="M391.42,-811.58C372.9,-853.06 329.22,-950.88 307.48,-999.58"/>
<polygon fill="#7f7f7f" stroke="#7f7f7f" points="304.19,-998.35 303.31,-1008.91 310.59,-1001.2 304.19,-998.35"/>
<text text-anchor="middle" x="336.95" y="-908.58" font-family="monospace" font-size="10.00">uses</text>
</g>
<!-- aliasman::utils::shell_utils::ShellConfig -->
<g id="node22" class="node">
<title>aliasman::utils::shell_utils::ShellConfig</title>
<polygon fill="#81c169" stroke="black" points="0,-786.44 0,-824.44 203,-824.44 203,-786.44 0,-786.44"/>
<text text-anchor="middle" x="101.5" y="-812.44" font-family="monospace" font-size="10.00">pub struct</text>
<polyline fill="none" stroke="black" points="0,-805.44 203,-805.44 "/>
<text text-anchor="middle" x="101.5" y="-793.44" font-family="monospace" font-size="10.00">utils::shell_utils::ShellConfig</text>
</g>
<!-- aliasman::utils::shell_utils&#45;&gt;aliasman::utils::shell_utils::ShellConfig -->
<g id="edge49" class="edge">
<title>aliasman::utils::shell_utils&#45;&gt;aliasman::utils::shell_utils::ShellConfig</title>
<path fill="none" stroke="#000000" d="M337.45,-795.03C301.44,-796.62 255.13,-798.66 213.09,-800.52"/>
<polygon fill="#000000" stroke="#000000" points="212.9,-797.02 203.07,-800.96 213.21,-804.02 212.9,-797.02"/>
<text text-anchor="middle" x="262.77" y="-800.78" font-family="monospace" font-size="10.00">owns</text>
</g>
</g>
</svg>
